Coordinates
version=1
nRows=27
nColumns=12
inDegrees=yes

Units are S.I. units (second, meters, Newtons, ...)
Angles are in degrees

endheader
time	SC_y	SC_z	SC_x	AC_y	AC_z	AC_x	GH_y	GH_z	GH_yy	EL_x	PS_y
       0.0              -39.86          24.66          22.57          53.87          5.531         -18.34          15.43          40.34          55.16          97.82          16.28
   0.03549              -39.86          24.66          22.58          53.86          5.528         -18.34          15.44          40.35          55.14          97.82           16.3
   0.07099              -39.86          24.66          22.58          53.86          5.524         -18.34          15.46          40.35          55.11          97.81          16.31
    0.1065              -39.85          24.66          22.58          53.86           5.52         -18.33          15.47          40.36          55.08          97.81          16.33
     0.142              -39.85          24.65          22.59          53.85          5.516         -18.33          15.48          40.36          55.05           97.8          16.35
    0.1775              -39.84          24.65          22.59          53.85          5.512         -18.32           15.5          40.37          55.02           97.8          16.37
     0.213              -39.84          24.65           22.6          53.85          5.507         -18.32          15.51          40.37          54.99          97.79           16.4
    0.2485              -39.83          24.65           22.6          53.84          5.502         -18.31          15.53          40.38          54.95          97.78          16.42
     0.284              -39.83          24.64          22.61          53.84          5.497         -18.31          15.55          40.38          54.92          97.78          16.45
    0.3195              -39.82          24.64          22.61          53.83          5.491          -18.3          15.56          40.39          54.88          97.77          16.48
    0.3549              -39.81          24.64          22.62          53.83          5.485         -18.29          15.58           40.4          54.83          97.76          16.51
    0.3904              -39.81          24.63          22.62          53.82          5.478         -18.29          15.61           40.4          54.79          97.75          16.54
    0.4259               -39.8          24.63          22.63          53.82          5.471         -18.28          15.63          40.41          54.74          97.74          16.57
    0.4614              -39.79          24.63          22.64          53.81          5.463         -18.27          15.65          40.42          54.68          97.73          16.61
    0.4969              -39.78          24.62          22.65           53.8          5.455         -18.26          15.68          40.43          54.62          97.72          16.65
    0.5324              -39.77          24.62          22.66           53.8          5.446         -18.25          15.71          40.44          54.56          97.71           16.7
    0.5679              -39.76          24.61          22.66          53.79          5.436         -18.24          15.74          40.45          54.49           97.7          16.74
    0.6034              -39.75          24.61          22.68          53.78          5.426         -18.23          15.78          40.46          54.41          97.68           16.8
    0.6389              -39.74           24.6          22.69          53.77          5.414         -18.22          15.82          40.48          54.33          97.67          16.85
    0.6744              -39.72          24.59           22.7          53.76          5.401          -18.2          15.86          40.49          54.24          97.65          16.92
    0.7099              -39.71          24.59          22.71          53.75          5.387         -18.19          15.91          40.51          54.14          97.63          16.99
    0.7454              -39.69          24.58          22.73          53.73          5.372         -18.17          15.96          40.52          54.03          97.61          17.06
    0.7809              -39.67          24.57          22.74          53.72          5.355         -18.15          16.01          40.54          53.91          97.59          17.15
    0.8164              -39.65          24.56          22.76           53.7          5.336         -18.13          16.07          40.56          53.78          97.57          17.24
    0.8519              -39.63          24.55          22.78          53.69          5.315         -18.11          16.14          40.59          53.63          97.54          17.34
    0.8874               -39.6          24.53          22.81          53.67          5.291         -18.09          16.22          40.61          53.46          97.51          17.46
    0.9229              -39.58          24.52          22.83          53.64          5.265         -18.06          16.31          40.64          53.28          97.47          17.59
